<svg xmlns="http://www.w3.org/2000/svg" height="800" width="1200" viewBox="-153.6 -72.33775 1331.2 434.0265"><path d="M144.675 0C64.901 0 0 64.901 0 144.675c0 79.775 64.901 144.676 144.675 144.676 79.775 0 144.676-64.901 144.676-144.676 0-33.816-11.852-66.557-33.42-92.484l-46.937 33.893 12.22 17.26 29.799-21.521a123.574 123.574 0 0117.183 62.852c0 68.113-55.408 123.537-123.52 123.537-68.113 0-123.537-55.424-123.537-123.537 0-68.112 55.424-123.52 123.536-123.52 24.09 0 47.712 7.09 64.64 19.046l19.108-13.517C203.189 8.419 172.886 0 144.675 0zm317.837 68.855c-22.822 0-41.06 7.635-54.711 22.896-13.651 15.261-20.467 34.303-20.467 57.125 0 22.612 6.33 40.887 19 54.818 12.671 13.931 29.267 20.895 49.778 20.895 16.452 0 32.45-4.385 47.991-13.136V147.09h-45.898v9.454h35.497v49.671c-10.221 5.88-22.114 8.814-35.696 8.814-18.341 0-32.94-5.977-43.79-17.947-10.781-12.041-16.175-28.637-16.175-49.778 0-20.092 5.748-36.614 17.229-49.565 11.55-12.95 26.804-19.428 45.776-19.428 13.021 0 26.351 3.286 40.003 9.867V76.844c-12.462-5.32-25.306-7.989-38.537-7.989zM144.675 91.507c-29.316 0-53.168 23.85-53.168 53.168 0 29.318 23.85 53.17 53.168 53.17 29.318 0 53.17-23.852 53.17-53.17 0-29.316-23.853-53.168-53.17-53.168zm503.187 20.299c-15.611 0-28.212 5.04-37.803 15.121-9.52 10.08-14.281 24.045-14.281 41.897 0 16.521 4.539 29.962 13.64 40.323 9.17 10.29 21.602 15.442 37.283 15.442 15.752 0 28.147-5.188 37.177-15.549 9.101-10.36 13.655-23.897 13.655-40.629 0-17.711-4.458-31.58-13.35-41.59-8.89-10.012-20.99-15.015-36.32-15.015zm120.543 0c-15.612 0-28.213 5.04-37.803 15.121-9.521 10.08-14.282 24.045-14.282 41.897 0 16.521 4.555 29.962 13.655 40.323 9.171 10.29 21.603 15.442 37.284 15.442 15.752 0 28.131-5.188 37.162-15.549 9.1-10.36 13.655-23.897 13.655-40.629 0-17.711-4.444-31.58-13.334-41.59-8.891-10.012-21.006-15.015-36.337-15.015zm214.11 0c-14.28 0-25.894 5.394-34.855 16.175-8.89 10.71-13.334 23.909-13.334 39.59 0 18.132 4.26 32.17 12.8 42.11 8.54 9.941 19.742 14.908 33.603 14.908 13.72 0 26.153-3.957 37.284-11.868v-10.295c-11.481 8.891-23.242 13.335-35.283 13.335-11.901 0-21.274-4.164-28.135-12.494-6.79-8.331-10.188-19.886-10.188-34.657H1024v-4.292c0-16.242-3.566-29.064-10.707-38.445-7.14-9.38-17.406-14.067-30.777-14.067zm-405.753.519c-7 0-13.161 2.277-18.482 6.828-5.32 4.55-9.204 10.932-11.654 19.123h-.412v-23.843h-9.455v107.529h9.455V171.45c0-16.102 2.859-28.533 8.599-37.284 5.74-8.75 12.852-13.12 21.323-13.12 4.34 0 8.128 1.157 11.348 3.467v-10.295c-3.15-1.26-6.732-1.894-10.722-1.894zm252.754 2.108l41.591 107.529h8.813l42.752-107.53h-10.508l-33.084 86.009c-1.12 2.8-2.13 6.403-3.04 10.814h-.412c-.63-3.36-1.728-7.112-3.268-11.242l-32.015-85.58zm-182.081 6.201c12.74 0 22.578 4.09 29.509 12.28 7 8.191 10.509 19.952 10.509 35.283 0 14.912-3.508 26.562-10.509 34.963-7 8.4-16.97 12.6-29.922 12.6-12.74 0-22.785-4.274-30.135-12.814-7.351-8.541-11.028-19.837-11.028-33.909 0-15.19 3.736-27.063 11.226-35.603 7.56-8.541 17.679-12.8 30.35-12.8zm120.557 0c12.741 0 22.58 4.09 29.51 12.28 7 8.191 10.493 19.952 10.493 35.283 0 14.912-3.493 26.562-10.493 34.963-7 8.4-16.986 12.6-29.937 12.6-12.741 0-22.785-4.274-30.136-12.814-7.35-8.541-11.028-19.837-11.028-33.909 0-15.19 3.751-27.063 11.242-35.603 7.56-8.541 17.678-12.8 30.35-12.8zm214.111 0c9.731 0 17.366 3.419 22.896 10.28 5.53 6.86 8.5 16.492 8.92 28.883h-69.1c1.54-12.601 5.609-22.27 12.19-28.99 6.65-6.79 15.014-10.173 25.094-10.173zm-837.428 5.682c10.129 0 18.36 8.231 18.36 18.36 0 10.127-8.231 18.374-18.36 18.374-10.128 0-18.374-8.247-18.374-18.375s8.246-18.359 18.374-18.359z" fill="#0076db"/></svg>